<?xml version="1.0" encoding="utf-8"?>
<!-- Generator: Adobe Illustrator 14.0.0, SVG Export Plug-In . SVG Version: 6.00 Build 43363)  -->
<!DOCTYPE svg PUBLIC "-//W3C//DTD SVG 1.1//EN" "http://www.w3.org/Graphics/SVG/1.1/DTD/svg11.dtd">
<svg version="1.1" id="Layer_1" xmlns="http://www.w3.org/2000/svg" xmlns:xlink="http://www.w3.org/1999/xlink" x="0px" y="0px"
	 width="120px" height="120px" viewBox="0 0 120 120" enable-background="new 0 0 120 120" xml:space="preserve">
<path fill="none" stroke="#000000" d="M117,60c0,31.48-25.521,57-57,57C28.52,117,3,91.48,3,60S28.52,3,60,3
	C91.48,3,117,28.52,117,60z M120,60c0,33.137-26.863,60-60,60C26.863,120,0,93.137,0,60C0,26.863,26.863,0,60,0
	C93.137,0,120,26.863,120,60z M57.55,76.889l29.218-28l-5.535-5.776L54.428,68.8L39.35,57.856l-4.699,6.474l17.782,12.907
	l2.705,1.963L57.55,76.889z"/>
</svg>
